<?xml version="1.0" standalone="no"?>
<!DOCTYPE svg PUBLIC "-//W3C//DTD SVG 20010904//EN"
 "http://www.w3.org/TR/2001/REC-SVG-20010904/DTD/svg10.dtd">
<svg version="1.0" xmlns="http://www.w3.org/2000/svg"
 width="744.000000pt" height="744.000000pt" viewBox="0 0 744.000000 744.000000"
 preserveAspectRatio="xMidYMid meet">

<g transform="translate(0.000000,744.000000) scale(0.100000,-0.100000)"
fill="#000000" stroke="none">
<path d="M1340 7429 c-185 -20 -398 -87 -566 -180 -266 -147 -501 -398 -628
-670 -51 -110 -87 -218 -118 -361 l-23 -103 0 -2400 0 -2400 22 -101 c34 -150
67 -246 133 -379 206 -418 577 -703 1050 -807 l105 -23 2405 0 2405 0 101 22
c150 34 246 67 379 133 416 205 699 572 807 1045 l22 100 4 2330 c2 1684 0
2361 -8 2443 -37 369 -192 688 -458 944 -244 234 -548 373 -891 408 -128 13
-4616 12 -4741 -1z m3561 -3415 c534 -1122 989 -2076 1010 -2122 l38 -82 -732
0 -732 0 -51 108 c-28 59 -342 706 -698 1439 l-646 1332 392 736 392 736 28
-54 c15 -30 464 -972 999 -2093z m-1878 -1391 c252 -436 457 -795 457 -798 0
-3 -416 -5 -925 -5 -509 0 -925 3 -925 6 0 3 11 24 24 47 44 77 848 1471 874
1515 13 24 28 40 32 35 4 -4 212 -365 463 -800z"/>
</g>
</svg>
